Patient4_TMGait_0pt4_03_right_09_EMG.mot
version=1
nRows=30
nColumns=33
inDegrees=no
endheader
time	1LAddLong	2LGlutMax	3LGlutMed	4LIliopsoas	5LSemiMemb	6LBicFemLong	7LRecFem	8LVastMed	9LVastLat	10LGasMed	11LTibAnt	12lTibPost	13LPeroneusLong	14LSol	15LExtDigLong	16LFlexDigLong	17RAddLong	18RGlutMax	19RGlutMed	20RIliopsoas	21RSemiMemb	22RBicFemLong	23RRecFem	24RVastMed	25RVastLat	26RGasMed	27RTibAnt	28RTibPost	29RPeroneusLong	30RSol	31RExtDigLong	32RFlexDigLong
11.23	-0.003967	0.017853	0.13458	0.006409	-0.007019	-0.029602	-0.063477	0.008392	0.000153	-0.056915	-0.007172	-0.028992	0.076447	-0.25528	0.039215	-0.052795	-0.013885	-0.49988	-0.80612	0.020294	0.010986	-0.09552	0.20645	0.04364	-0.27878	-0.017395	0.046082	-0.01358	0.002136	-0.082397	-0.001831	-0.002747
11.231	0.000305	0.021057	0.13016	0.009918	-0.007935	-0.015869	-0.080566	0.010071	0.003967	-0.036163	-0.00412	-0.027771	0.083313	-0.04776	0.02243	-0.053864	-0.001373	-0.4042	-0.77194	0.030975	0.12375	-0.10223	0.22507	0.032043	-0.026855	-0.013885	0.042114	-0.013885	0.065613	0.010529	0.002899	-0.005646
11.232	-0.009155	0.054016	0.12833	0.01297	0.001831	-0.00946	-0.06958	0.003357	-0.005035	-0.011139	-0.005188	-0.015869	0.070038	0.071411	0.020142	-0.044098	0.005951	-0.32227	-0.24521	0.077057	-0.023804	-0.093384	0.18799	0.000458	-0.006561	-0.003662	0.061951	-0.007172	0.053558	0.084839	-0.000916	-0.00412
11.233	-0.00473	0.057526	0.12283	0.000916	-0.006104	0.008087	-0.068054	0.011597	-0.019989	-0.011292	0.003052	-0.034637	0.033722	0.047913	0.016632	-0.034637	0.049438	-0.42648	0.068359	0.095978	-0.36102	-0.14664	0.17929	0.001984	-0.053406	0.007019	0.062103	-0.009308	0.098114	0.046692	-0.001526	-0.001984
11.234	-0.010986	0.043182	0.12619	0.000763	-0.004272	0.010376	-0.058441	0.014954	-0.019989	-0.016785	0.002289	-0.011902	0.022736	0.052643	0.014343	-0.029755	0.079041	-0.42664	-0.63522	0.17364	-0.36255	-0.25375	0.18829	0.005188	-0.088654	0.014038	0.02594	-0.0177	0.23148	0.016632	0.001526	-0.010376
11.235	-0.004883	0.096588	0.11276	0.011597	0.003357	-0.01236	-0.062714	0.005951	-0.011902	-0.019989	-0.004578	-0.001984	0.013428	0.07309	0.004578	-0.024719	0.079803	-0.27588	-0.59601	0.028381	-0.34485	-0.064392	-0.052795	-0.037384	-0.10468	0.009918	-0.005951	-0.013428	0.18509	-0.076141	0.000763	-0.005493
11.236	0.011749	0.080566	0.12802	0.019836	0.020599	-0.020599	-0.05249	0.018616	-0.018616	-0.010223	0.031281	-0.008087	-0.006409	0.090332	-0.001068	-0.02533	0.075684	-0.067749	0.39734	-0.12009	-0.099792	-0.030518	-0.006561	-0.1088	-0.015411	0.002136	0.033264	-0.01236	0.13077	-0.067596	-0.001526	-0.007629
11.237	0.005035	0.055084	0.14053	0.012665	0.018158	-0.014801	-0.059967	0.018616	-0.016479	-0.002289	0.058136	-0.010223	-0.022278	0.030975	-0.000458	-0.027771	0.031281	-0.074921	0.086365	-0.026093	0.005798	-0.078735	0.10849	-0.020142	0.14938	-0.051422	0.045471	-0.014343	0.041199	-0.041351	-0.001831	0.002441
11.238	0.000458	0.054321	0.14358	0.009003	0.011139	-0.003815	-0.061798	0.011749	-0.005035	-0.003052	0.035858	0.004272	-0.016327	0.10681	0.008087	0.009613	0.002136	-0.21393	-0.56534	0.057983	0.029449	-0.053864	0.30762	0.12344	0.21362	-0.052185	-0.013428	-0.016785	-0.49057	0.02533	-0.007324	0.003662
11.239	0.008087	0.052795	0.15198	0.013885	0.008392	-0.005493	-0.068207	0.010529	-0.00351	0.000916	-0.041046	0.001373	0.004578	0.12085	-0.008087	-0.021667	0.005646	-0.19577	0.30136	-0.024567	-0.075073	0.065765	0.37354	0.16159	0.14908	-0.011139	-0.032806	-0.013885	-0.28061	0.018005	-0.001984	-0.003967
11.24	-0.006561	0.05661	0.13931	0.004883	0.005341	-0.021057	-0.068512	0.014648	-0.016785	0.015411	-0.027924	0.003967	-0.016174	0.1619	0.004425	-0.011444	0.077667	-0.10941	0.71762	-0.16235	-0.26245	-0.064392	0.4129	0.002441	0.02533	0.012665	-0.028992	0.002899	-0.20218	-0.051117	-0.001831	-0.001373
11.241	0.004425	0.074463	0.13611	-0.010834	0.00473	-0.022736	-0.081177	0.007172	-0.011902	0.063171	0.009613	-0.001221	-0.054169	0.16571	0.001984	-0.001221	0.063019	-0.15228	0.60104	-0.35858	-0.37491	-0.11047	0.25726	0.035706	-0.08316	0.01709	0.016022	0.0383	-0.41702	-0.11185	-0.005035	-0.002289
11.242	-0.000305	0.066528	0.14923	-0.000916	0.005188	-0.000916	-0.077972	0.010986	-0.018463	0.10132	0.019531	0.000763	-0.058899	0.15533	0.002441	0.031738	-0.029602	-0.17944	-0.13641	-0.38132	-0.55893	-0.058746	0.21591	0.21301	-0.10788	0.035248	0.024414	0.014038	-0.36774	-0.10483	-0.00061	0.001526
11.243	-0.005646	0.090179	0.1355	-0.00473	0.001984	-0.018158	-0.076752	0.010071	-0.00473	0.13702	0.032806	0.001678	-0.060272	0.11948	0.005798	-0.10162	-0.06546	-0.21866	-1.4543	-0.17746	-0.36377	0.049744	0.22049	0.21957	-0.16083	0.04364	0.007324	-0.00885	-0.14496	-0.078735	-0.001984	0.000458
11.244	0.009766	0.12878	0.13473	-0.001373	0.004425	-0.006714	-0.059662	0.015869	0.002441	0.21561	0.005798	0.004578	-0.055695	0.079956	0.003662	0.18143	-0.07309	-0.12787	-1.8456	0.0383	-0.085602	0.11551	0.27405	-0.009613	-0.31448	0.029144	0.024414	-0.011902	0.50323	-0.046692	0.000305	-0.001678
11.245	0.003967	0.1207	0.14297	0.00473	0.001678	-0.003815	-0.048523	0.011139	-0.005646	-0.017242	-0.014343	0.006714	-0.035858	0.071564	0.000153	0.021667	-0.03479	-0.066223	0.3064	0.18387	0.072479	0.17364	0.48233	-0.13611	-0.54855	0.020599	0.025177	-0.000458	0.86975	-0.058136	0	0.000916
11.246	0.00824	0.14038	0.1387	0.029755	0.005493	-0.002594	-0.035858	0.017853	-0.008698	-0.26535	-0.004272	0.004578	-0.000305	-0.14328	-0.00473	-0.056152	-0.046082	-0.22583	1.2361	0.50613	0.16449	0.20416	0.35965	-0.1091	-0.1561	0.014191	0.009155	-0.001678	0.21484	-0.069122	0.000305	-0.003967
11.247	0.006714	0.13184	0.1358	0.027008	0.003204	-0.001984	-0.034943	0.018768	-0.000916	-0.12024	-0.006104	0.031738	0.09201	-0.41122	-0.006104	-0.032501	-0.056152	-0.36606	0.90668	0.4335	0.11536	0.1059	0.027008	0.016479	0.10834	-0.008392	0.010681	-0.004425	-0.32288	-0.070343	0.001831	-0.009308
11.248	0.005188	0.16449	0.15335	0.007629	0.008698	-0.006561	-0.031891	0.012054	-0.006409	-0.049133	0.001068	0.094299	0.056915	-0.34164	0.007629	-0.031891	-0.029449	-0.48584	0.94635	0.17761	0.021973	-0.026245	-0.25192	0.082397	0.20157	-0.058899	-0.054016	-0.010986	1.0658	-0.075684	-0.004578	-0.005798
11.249	0.015259	0.15747	0.13992	-0.005951	0.01236	-0.005341	-0.037689	0.016327	0.001526	-0.064545	-0.012054	0.06073	0.013885	0.097809	-0.007782	0.001221	-0.038605	-0.63522	-0.58548	0.14923	0.15945	-0.18295	-0.1648	0.1709	0.15213	-0.044556	0.037842	-0.001678	0.97885	-0.12253	-0.000763	-0.016022
11.25	0.010071	0.17899	0.1471	-0.002289	0.007935	-0.011749	-0.026855	0.00946	-0.005798	-0.020905	0.002441	-0.06546	0.016785	0.26489	-0.007629	0.014648	-0.021057	-0.59845	-2.233	0.14023	0.17822	-0.19012	-0.10284	0.017853	0.01709	-0.031586	0.05127	0.000305	-0.13748	0.003052	-0.007935	-0.019531
11.251	0.004272	0.16144	0.1442	-0.006714	0.012512	-0.004578	-0.005035	0.007324	0.003204	-0.031128	0.001526	-0.039673	-0.026398	0.44128	0.006104	-0.00351	-0.002136	-0.63553	-2.8999	0.11948	0.053711	-0.16907	-0.15579	-0.038147	-0.16144	-0.021667	-0.032654	0.000916	-0.28336	0.046387	0.000763	-0.01358
11.252	0.013123	0.18188	0.14435	-0.005951	0.010834	-0.018158	-0.005493	0.014191	-0.010986	-0.04303	0.002594	-0.030975	-0.046539	0.32989	0.01297	-0.014801	0.007172	-0.69855	-2.4091	-0.001068	-0.33814	-0.004578	0.056152	-0.000153	-0.18951	-0.013428	-0.003052	-0.003357	-0.55252	0.022278	0.000153	-0.013275
11.253	0.007477	0.21637	0.15137	0.003662	0.006409	-0.016174	0.030823	0.013428	-0.011749	-0.011139	0.003357	-0.007782	-0.027161	0.14557	0.007935	-0.018311	-0.015717	-0.70419	1.1148	-0.20203	-0.49637	0.034943	0.27771	-0.075226	-0.19699	-0.010376	-0.039063	-0.000763	-0.13763	-0.021362	0.003204	-0.018463
11.254	0.005341	0.21362	0.15427	0.003204	0.004272	-0.006714	0.052643	0.008698	-0.021667	-0.03891	0.003357	-0.007782	-0.014496	-0.06897	0.001373	0.001373	-0.05722	-0.88196	1.3359	-0.16556	-0.32623	0.033722	0.22064	-0.067596	-0.076294	-0.001526	-0.001678	-0.001678	-0.03418	-0.080109	0.004425	-0.02655
11.255	-0.005951	0.21942	0.12589	-0.015259	0.006409	-0.001068	0.056152	0.014038	-0.024719	-0.015411	0.003662	0.002594	-0.036011	0.012665	-0.001373	-0.003204	-0.04837	-0.8519	-0.50797	-0.12787	0.13382	-0.014038	0.13763	0.098877	0.095978	-0.020752	0.046692	0.001831	-0.40573	-0.085449	-0.000305	-0.027771
11.256	-0.011902	0.18433	0.085297	-0.012512	0.007782	0.008087	0.066833	0.009308	-0.005798	-0.030518	-0.001373	0.00351	-0.01709	0.082703	0.000153	-0.001526	-0.015564	-0.91522	-1.2126	-0.10696	0.34088	-0.032043	0.27191	0.18265	0.089417	-0.020142	0.002747	0.002136	-0.39581	-0.14389	-0.000458	-0.021667
11.257	-0.002136	0.16953	0.075531	-0.027466	0.006714	0.001373	0.050507	0.016174	0.003052	-0.016937	-0.010223	0.002747	-0.005341	0.076904	-0.006561	-0.01358	0.067444	-0.8432	-1.2904	-0.046844	0.16235	-0.08606	0.49881	-0.054779	-0.013275	0.010681	-0.008698	-0.020905	-0.64209	-0.25497	-0.004272	-0.01709
11.258	-0.014954	0.19486	0.063477	-0.014496	0.001526	0.002441	0.040588	0.011139	0.032349	-0.025024	0.000305	0.002899	-0.021362	0.072937	-0.018158	0.000458	0.13001	-0.79392	-0.66727	-0.11902	-0.04837	-0.1622	0.57419	-0.072632	-0.12299	0.003204	0.019531	-0.13397	-0.54688	-0.47409	-0.000763	-0.009766
11.259	-0.010223	0.18967	0.065308	0.012054	0.006866	-0.002594	0.051117	0.010071	0.070343	-0.023651	-0.001984	0.001221	-0.049896	0.069122	0.005798	-0.009003	0.083771	-0.75043	0.21103	-0.16647	-0.066223	-0.088196	0.50873	-0.21149	0.052643	-0.003204	0.007019	-0.39276	0.004578	-0.17685	-0.003967	-0.014038
